%TF.GenerationSoftware,KiCad,Pcbnew,7.0.11*%
%TF.CreationDate,2025-06-15T15:22:59+10:00*%
%TF.ProjectId,Analog computer,416e616c-6f67-4206-936f-6d7075746572,rev?*%
%TF.SameCoordinates,Original*%
%TF.FileFunction,Copper,L1,Top*%
%TF.FilePolarity,Positive*%
%FSLAX46Y46*%
G04 Gerber Fmt 4.6, Leading zero omitted, Abs format (unit mm)*
G04 Created by KiCad (PCBNEW 7.0.11) date 2025-06-15 15:22:59*
%MOMM*%
%LPD*%
G01*
G04 APERTURE LIST*
%TA.AperFunction,ComponentPad*%
%ADD10R,1.700000X1.700000*%
%TD*%
%TA.AperFunction,ComponentPad*%
%ADD11O,1.700000X1.700000*%
%TD*%
%TA.AperFunction,ComponentPad*%
%ADD12C,1.600000*%
%TD*%
%TA.AperFunction,ComponentPad*%
%ADD13O,1.600000X1.600000*%
%TD*%
%TA.AperFunction,ComponentPad*%
%ADD14R,1.600000X1.600000*%
%TD*%
%TA.AperFunction,ComponentPad*%
%ADD15R,1.800000X1.800000*%
%TD*%
%TA.AperFunction,ComponentPad*%
%ADD16C,1.800000*%
%TD*%
%TA.AperFunction,ComponentPad*%
%ADD17R,2.200000X2.200000*%
%TD*%
%TA.AperFunction,ComponentPad*%
%ADD18O,2.200000X2.200000*%
%TD*%
%TA.AperFunction,ComponentPad*%
%ADD19R,1.600000X2.400000*%
%TD*%
%TA.AperFunction,ComponentPad*%
%ADD20O,1.600000X2.400000*%
%TD*%
%TA.AperFunction,ComponentPad*%
%ADD21R,2.400000X1.600000*%
%TD*%
%TA.AperFunction,ComponentPad*%
%ADD22O,2.400000X1.600000*%
%TD*%
%TA.AperFunction,ComponentPad*%
%ADD23R,3.000000X3.000000*%
%TD*%
%TA.AperFunction,ComponentPad*%
%ADD24C,3.000000*%
%TD*%
%TA.AperFunction,ComponentPad*%
%ADD25R,1.905000X2.000000*%
%TD*%
%TA.AperFunction,ComponentPad*%
%ADD26O,1.905000X2.000000*%
%TD*%
%TA.AperFunction,ComponentPad*%
%ADD27C,2.000000*%
%TD*%
%TA.AperFunction,ComponentPad*%
%ADD28R,1.500000X1.500000*%
%TD*%
%TA.AperFunction,ComponentPad*%
%ADD29C,1.440000*%
%TD*%
%TA.AperFunction,ComponentPad*%
%ADD30C,1.700000*%
%TD*%
%TA.AperFunction,ViaPad*%
%ADD31C,0.600000*%
%TD*%
%TA.AperFunction,Conductor*%
%ADD32C,0.200000*%
%TD*%
%TA.AperFunction,Conductor*%
%ADD33C,0.350000*%
%TD*%
%TA.AperFunction,Conductor*%
%ADD34C,0.400000*%
%TD*%
G04 APERTURE END LIST*
D10*
%TO.P,J2,1,Pin_1*%
%TO.N,+15V*%
X99670000Y-41180000D03*
D11*
%TO.P,J2,2,Pin_2*%
X102210000Y-41180000D03*
%TO.P,J2,3,Pin_3*%
X104750000Y-41180000D03*
%TO.P,J2,4,Pin_4*%
X107290000Y-41180000D03*
%TD*%
D12*
%TO.P,R6,1*%
%TO.N,Net-(U1C-+)*%
X144920000Y-83220000D03*
D13*
%TO.P,R6,2*%
%TO.N,summer A input 2*%
X155080000Y-83220000D03*
%TD*%
D14*
%TO.P,C1,1*%
%TO.N,Net-(C1-Pad1)*%
X132840000Y-49610000D03*
D12*
%TO.P,C1,2*%
%TO.N,GND*%
X132840000Y-51610000D03*
%TD*%
D10*
%TO.P,COEF_A\u002CB1,1,Pin_1*%
%TO.N,Coef A input*%
X73040000Y-114280000D03*
D11*
%TO.P,COEF_A\u002CB1,2,Pin_2*%
%TO.N,Coef A Output*%
X73040000Y-116820000D03*
%TO.P,COEF_A\u002CB1,3,Pin_3*%
%TO.N,Coef B input*%
X73040000Y-119360000D03*
%TO.P,COEF_A\u002CB1,4,Pin_4*%
%TO.N,Coef B Output*%
X73040000Y-121900000D03*
%TD*%
D12*
%TO.P,R5,1*%
%TO.N,Net-(U1C-+)*%
X144920000Y-79930000D03*
D13*
%TO.P,R5,2*%
%TO.N,summer A input 1*%
X155080000Y-79930000D03*
%TD*%
D12*
%TO.P,R33,1*%
%TO.N,initial voltage input D*%
X80550000Y-96650000D03*
D13*
%TO.P,R33,2*%
%TO.N,Net-(C5-Pad2)*%
X90710000Y-96650000D03*
%TD*%
D12*
%TO.P,R3,1*%
%TO.N,Inverter B ouput*%
X155230000Y-111700000D03*
D13*
%TO.P,R3,2*%
%TO.N,Net-(U1B--)*%
X145070000Y-111700000D03*
%TD*%
D12*
%TO.P,C2,1*%
%TO.N,Net-(U4A--)*%
X128778000Y-79816000D03*
%TO.P,C2,2*%
%TO.N,Net-(C2-Pad2)*%
X128778000Y-87316000D03*
%TD*%
%TO.P,R36,1*%
%TO.N,Net-(U1C-+)*%
X144920000Y-86510000D03*
D13*
%TO.P,R36,2*%
%TO.N,summer A input 3 (10x)*%
X155080000Y-86510000D03*
%TD*%
D12*
%TO.P,R9,1*%
%TO.N,int A input 2*%
X80550000Y-48370000D03*
D13*
%TO.P,R9,2*%
%TO.N,Net-(R41-Pad2)*%
X90710000Y-48370000D03*
%TD*%
D15*
%TO.P,D1,1,K*%
%TO.N,GND*%
X114990000Y-111360000D03*
D16*
%TO.P,D1,2,A*%
%TO.N,Net-(D1-A)*%
X114990000Y-113900000D03*
%TD*%
D17*
%TO.P,D2,1,K*%
%TO.N,Net-(D2-K)*%
X154410000Y-59610000D03*
D18*
%TO.P,D2,2,A*%
%TO.N,Net-(D2-A)*%
X154410000Y-69770000D03*
%TD*%
D12*
%TO.P,R29,1*%
%TO.N,int D input 1*%
X80550000Y-99970000D03*
D13*
%TO.P,R29,2*%
%TO.N,Net-(R18-Pad2)*%
X90710000Y-99970000D03*
%TD*%
D19*
%TO.P,U1,1*%
%TO.N,Inverter A ouput*%
X122520000Y-96380000D03*
D20*
%TO.P,U1,2,-*%
%TO.N,Net-(U1A--)*%
X119980000Y-96380000D03*
%TO.P,U1,3,+*%
%TO.N,GND*%
X117440000Y-96380000D03*
%TO.P,U1,4,V+*%
%TO.N,+15V*%
X114900000Y-96380000D03*
%TO.P,U1,5,+*%
%TO.N,GND*%
X112360000Y-96380000D03*
%TO.P,U1,6,-*%
%TO.N,Net-(U1B--)*%
X109820000Y-96380000D03*
%TO.P,U1,7*%
%TO.N,Inverter B ouput*%
X107280000Y-96380000D03*
%TO.P,U1,8*%
%TO.N,Summer A ouput*%
X107280000Y-104000000D03*
%TO.P,U1,9,-*%
X109820000Y-104000000D03*
%TO.P,U1,10,+*%
%TO.N,Net-(U1C-+)*%
X112360000Y-104000000D03*
%TO.P,U1,11,V-*%
%TO.N,-15V*%
X114900000Y-104000000D03*
%TO.P,U1,12,+*%
%TO.N,Net-(U1D-+)*%
X117440000Y-104000000D03*
%TO.P,U1,13,-*%
%TO.N,Summer B ouput*%
X119980000Y-104000000D03*
%TO.P,U1,14*%
X122520000Y-104000000D03*
%TD*%
D12*
%TO.P,R8,1*%
%TO.N,int A input 1*%
X80550000Y-45130000D03*
D13*
%TO.P,R8,2*%
%TO.N,Net-(R41-Pad2)*%
X90710000Y-45130000D03*
%TD*%
D21*
%TO.P,U6,1*%
%TO.N,+5V*%
X140840000Y-41400000D03*
D22*
%TO.P,U6,2*%
%TO.N,Net-(C1-Pad1)*%
X140840000Y-43940000D03*
%TO.P,U6,3*%
%TO.N,Net-(RV5-Pad2)*%
X140840000Y-46480000D03*
%TO.P,U6,4*%
%TO.N,Net-(SW2-C)*%
X140840000Y-49020000D03*
%TO.P,U6,5*%
%TO.N,+5V*%
X140840000Y-51560000D03*
%TO.P,U6,6*%
%TO.N,Net-(RV5-Pad2)*%
X140840000Y-54100000D03*
%TO.P,U6,7,Vss*%
%TO.N,GND*%
X140840000Y-56640000D03*
%TO.P,U6,8*%
%TO.N,Net-(R10-Pad2)*%
X148460000Y-56640000D03*
%TO.P,U6,9*%
%TO.N,+5V*%
X148460000Y-54100000D03*
%TO.P,U6,10*%
%TO.N,Net-(SW2-A)*%
X148460000Y-51560000D03*
%TO.P,U6,11*%
%TO.N,operate switch input*%
X148460000Y-49020000D03*
%TO.P,U6,12*%
%TO.N,+5V*%
X148460000Y-46480000D03*
%TO.P,U6,13*%
%TO.N,TRIG out*%
X148460000Y-43940000D03*
%TO.P,U6,14,Vdd*%
%TO.N,+5V*%
X148460000Y-41400000D03*
%TD*%
D23*
%TO.P,RV1,1,1*%
%TO.N,Coef A input*%
X84408000Y-129538000D03*
D24*
%TO.P,RV1,2,2*%
%TO.N,Coef A Output*%
X89408000Y-129538000D03*
%TO.P,RV1,3,3*%
%TO.N,GND*%
X94408000Y-129538000D03*
%TD*%
D12*
%TO.P,R22,1*%
%TO.N,int C input 1*%
X80550000Y-81750000D03*
D13*
%TO.P,R22,2*%
%TO.N,Net-(R11-Pad2)*%
X90710000Y-81750000D03*
%TD*%
D23*
%TO.P,J3,1,Pin_1*%
%TO.N,GND*%
X161544000Y-43180000D03*
D24*
%TO.P,J3,2,Pin_2*%
%TO.N,Net-(D2-A)*%
X156464000Y-43180000D03*
%TD*%
D12*
%TO.P,R7,1*%
%TO.N,Net-(D1-A)*%
X119850000Y-108160000D03*
D13*
%TO.P,R7,2*%
%TO.N,TRIG out*%
X109690000Y-108160000D03*
%TD*%
D25*
%TO.P,U7,1,IN*%
%TO.N,Net-(D2-K)*%
X147066000Y-71240000D03*
D26*
%TO.P,U7,2,GND*%
%TO.N,GND*%
X144526000Y-71240000D03*
%TO.P,U7,3,OUT*%
%TO.N,+5V*%
X141986000Y-71240000D03*
%TD*%
D12*
%TO.P,R27,1*%
%TO.N,Net-(C4-Pad2)*%
X117130000Y-91240000D03*
D13*
%TO.P,R27,2*%
%TO.N,Net-(R27-Pad2)*%
X127290000Y-91240000D03*
%TD*%
D12*
%TO.P,R37,1*%
%TO.N,Net-(U1D-+)*%
X145110000Y-92050000D03*
D13*
%TO.P,R37,2*%
%TO.N,summer B input 1*%
X155270000Y-92050000D03*
%TD*%
D10*
%TO.P,INT_D1,1,Pin_1*%
%TO.N,initial voltage input D*%
X73090000Y-96932500D03*
D11*
%TO.P,INT_D1,2,Pin_2*%
%TO.N,int D input 1*%
X73090000Y-99472500D03*
%TO.P,INT_D1,3,Pin_3*%
%TO.N,int D input 2*%
X73090000Y-102012500D03*
%TO.P,INT_D1,4,Pin_4*%
%TO.N,int D input 3 (10x)*%
X73090000Y-104552500D03*
%TO.P,INT_D1,5,Pin_5*%
%TO.N,int D output*%
X73090000Y-107092500D03*
%TO.P,INT_D1,6,Pin_6*%
X73090000Y-109632500D03*
%TD*%
D23*
%TO.P,RV2,1,1*%
%TO.N,Coef B input*%
X103474666Y-129538000D03*
D24*
%TO.P,RV2,2,2*%
%TO.N,Coef B Output*%
X108474666Y-129538000D03*
%TO.P,RV2,3,3*%
%TO.N,GND*%
X113474666Y-129538000D03*
%TD*%
D10*
%TO.P,COEF_D\u002CC1,1,Pin_1*%
%TO.N,Coef C input*%
X161690000Y-115790000D03*
D11*
%TO.P,COEF_D\u002CC1,2,Pin_2*%
%TO.N,Coef C Output*%
X161690000Y-118330000D03*
%TO.P,COEF_D\u002CC1,3,Pin_3*%
%TO.N,Coef D input*%
X161690000Y-120870000D03*
%TO.P,COEF_D\u002CC1,4,Pin_4*%
%TO.N,Coef D Output*%
X161690000Y-123410000D03*
%TD*%
D12*
%TO.P,C5,1*%
%TO.N,Net-(U4D--)*%
X100750000Y-54416000D03*
%TO.P,C5,2*%
%TO.N,Net-(C5-Pad2)*%
X100750000Y-61916000D03*
%TD*%
%TO.P,R26,1*%
%TO.N,initial voltage input C*%
X80550000Y-78550000D03*
D13*
%TO.P,R26,2*%
%TO.N,Net-(C4-Pad2)*%
X90710000Y-78550000D03*
%TD*%
D12*
%TO.P,R13,1*%
%TO.N,Net-(R12-Pad2)*%
X108510000Y-50500000D03*
D13*
%TO.P,R13,2*%
%TO.N,Net-(C2-Pad2)*%
X98350000Y-50500000D03*
%TD*%
D27*
%TO.P,SW1,1,1*%
%TO.N,+5V*%
X158590000Y-127544000D03*
X165090000Y-127544000D03*
%TO.P,SW1,2,2*%
%TO.N,Net-(R10-Pad2)*%
X158590000Y-132044000D03*
X165090000Y-132044000D03*
%TD*%
D10*
%TO.P,INVERTER_A\u002CB1,1,Pin_1*%
%TO.N,inverter A input*%
X161690000Y-103703332D03*
D11*
%TO.P,INVERTER_A\u002CB1,2,Pin_2*%
%TO.N,Inverter A ouput*%
X161690000Y-106243332D03*
%TO.P,INVERTER_A\u002CB1,3,Pin_3*%
%TO.N,inverter B input*%
X161690000Y-108783332D03*
%TO.P,INVERTER_A\u002CB1,4,Pin_4*%
%TO.N,Inverter B ouput*%
X161690000Y-111323332D03*
%TD*%
D19*
%TO.P,U3,1*%
%TO.N,TRIG out*%
X123740000Y-79640000D03*
D20*
%TO.P,U3,2*%
%TO.N,Net-(U4A--)*%
X121200000Y-79640000D03*
%TO.P,U3,3*%
%TO.N,Net-(R12-Pad2)*%
X118660000Y-79640000D03*
%TO.P,U3,4,V-*%
%TO.N,-15V*%
X116120000Y-79640000D03*
%TO.P,U3,5,GND*%
%TO.N,GND*%
X113580000Y-79640000D03*
%TO.P,U3,6*%
%TO.N,Net-(R41-Pad2)*%
X111040000Y-79640000D03*
%TO.P,U3,7*%
%TO.N,Net-(U4A--)*%
X108500000Y-79640000D03*
%TO.P,U3,8*%
%TO.N,operate switch input*%
X105960000Y-79640000D03*
%TO.P,U3,9*%
X105960000Y-87260000D03*
%TO.P,U3,10*%
%TO.N,Net-(R11-Pad2)*%
X108500000Y-87260000D03*
%TO.P,U3,11*%
%TO.N,Net-(U4C--)*%
X111040000Y-87260000D03*
%TO.P,U3,12,VL*%
%TO.N,+5V*%
X113580000Y-87260000D03*
%TO.P,U3,13,V+*%
%TO.N,+15V*%
X116120000Y-87260000D03*
%TO.P,U3,14*%
%TO.N,Net-(C4-Pad2)*%
X118660000Y-87260000D03*
%TO.P,U3,15*%
%TO.N,Net-(U4C--)*%
X121200000Y-87260000D03*
%TO.P,U3,16*%
%TO.N,TRIG out*%
X123740000Y-87260000D03*
%TD*%
D12*
%TO.P,R41,1*%
%TO.N,int A input 3 (10x)*%
X80550000Y-51570000D03*
D13*
%TO.P,R41,2*%
%TO.N,Net-(R41-Pad2)*%
X90710000Y-51570000D03*
%TD*%
D12*
%TO.P,R4,1*%
%TO.N,Net-(U1B--)*%
X145070000Y-108503332D03*
D13*
%TO.P,R4,2*%
%TO.N,inverter B input*%
X155230000Y-108503332D03*
%TD*%
D12*
%TO.P,R20,1*%
%TO.N,Net-(C3-Pad2)*%
X124090000Y-50500000D03*
D13*
%TO.P,R20,2*%
%TO.N,Net-(R20-Pad2)*%
X113930000Y-50500000D03*
%TD*%
D10*
%TO.P,J9,1,Pin_1*%
%TO.N,TRIG out*%
X112700000Y-41110000D03*
D11*
%TO.P,J9,2,Pin_2*%
X115240000Y-41110000D03*
%TO.P,J9,3,Pin_3*%
%TO.N,GND*%
X117780000Y-41110000D03*
%TO.P,J9,4,Pin_4*%
X120320000Y-41110000D03*
%TD*%
D12*
%TO.P,R10,1*%
%TO.N,GND*%
X145050000Y-115060000D03*
D13*
%TO.P,R10,2*%
%TO.N,Net-(R10-Pad2)*%
X155210000Y-115060000D03*
%TD*%
D12*
%TO.P,R18,1*%
%TO.N,int D input 3 (10x)*%
X80550000Y-106510000D03*
D13*
%TO.P,R18,2*%
%TO.N,Net-(R18-Pad2)*%
X90710000Y-106510000D03*
%TD*%
D23*
%TO.P,RV3,1,1*%
%TO.N,Coef C input*%
X122541332Y-129538000D03*
D24*
%TO.P,RV3,2,2*%
%TO.N,Coef C Output*%
X127541332Y-129538000D03*
%TO.P,RV3,3,3*%
%TO.N,GND*%
X132541332Y-129538000D03*
%TD*%
D12*
%TO.P,R14,1*%
%TO.N,Net-(C2-Pad2)*%
X90710000Y-54850000D03*
D13*
%TO.P,R14,2*%
%TO.N,int A output*%
X80550000Y-54850000D03*
%TD*%
D12*
%TO.P,R15,1*%
%TO.N,int B input 1*%
X80550000Y-63580000D03*
D13*
%TO.P,R15,2*%
%TO.N,Net-(R15-Pad2)*%
X90710000Y-63580000D03*
%TD*%
D28*
%TO.P,SW2,1,B*%
%TO.N,TRIG out*%
X116250000Y-46460000D03*
D12*
%TO.P,SW2,2,C*%
%TO.N,Net-(SW2-C)*%
X118790000Y-46460000D03*
%TO.P,SW2,3,A*%
%TO.N,Net-(SW2-A)*%
X113710000Y-46460000D03*
%TD*%
D19*
%TO.P,U5,1*%
%TO.N,TRIG out*%
X123740000Y-54430000D03*
D20*
%TO.P,U5,2*%
%TO.N,Net-(U4B--)*%
X121200000Y-54430000D03*
%TO.P,U5,3*%
%TO.N,Net-(C3-Pad2)*%
X118660000Y-54430000D03*
%TO.P,U5,4,V-*%
%TO.N,-15V*%
X116120000Y-54430000D03*
%TO.P,U5,5,GND*%
%TO.N,GND*%
X113580000Y-54430000D03*
%TO.P,U5,6*%
%TO.N,Net-(R15-Pad2)*%
X111040000Y-54430000D03*
%TO.P,U5,7*%
%TO.N,Net-(U4B--)*%
X108500000Y-54430000D03*
%TO.P,U5,8*%
%TO.N,operate switch input*%
X105960000Y-54430000D03*
%TO.P,U5,9*%
%TO.N,TRIG out*%
X105960000Y-62050000D03*
%TO.P,U5,10*%
%TO.N,Net-(U4D--)*%
X108500000Y-62050000D03*
%TO.P,U5,11*%
%TO.N,Net-(C5-Pad2)*%
X111040000Y-62050000D03*
%TO.P,U5,12,VL*%
%TO.N,+5V*%
X113580000Y-62050000D03*
%TO.P,U5,13,V+*%
%TO.N,+15V*%
X116120000Y-62050000D03*
%TO.P,U5,14*%
%TO.N,Net-(U4D--)*%
X118660000Y-62050000D03*
%TO.P,U5,15*%
%TO.N,Net-(R18-Pad2)*%
X121200000Y-62050000D03*
%TO.P,U5,16*%
%TO.N,operate switch input*%
X123740000Y-62050000D03*
%TD*%
D12*
%TO.P,R21,1*%
%TO.N,Net-(R20-Pad2)*%
X90710000Y-73510000D03*
D13*
%TO.P,R21,2*%
%TO.N,int B output*%
X80550000Y-73510000D03*
%TD*%
D23*
%TO.P,RV4,1,1*%
%TO.N,Coef D input*%
X141628000Y-129538000D03*
D24*
%TO.P,RV4,2,2*%
%TO.N,Coef D Output*%
X146628000Y-129538000D03*
%TO.P,RV4,3,3*%
%TO.N,GND*%
X151628000Y-129538000D03*
%TD*%
D12*
%TO.P,R19,1*%
%TO.N,initial voltage input B*%
X80550000Y-60300000D03*
D13*
%TO.P,R19,2*%
%TO.N,Net-(C3-Pad2)*%
X90710000Y-60300000D03*
%TD*%
D12*
%TO.P,R35,1*%
%TO.N,Net-(R34-Pad2)*%
X90710000Y-109860000D03*
D13*
%TO.P,R35,2*%
%TO.N,int D output*%
X80550000Y-109860000D03*
%TD*%
D27*
%TO.P,C8,1*%
%TO.N,+5V*%
X141030000Y-62130000D03*
%TO.P,C8,2*%
%TO.N,GND*%
X148530000Y-62130000D03*
%TD*%
D10*
%TO.P,SUMMER_A1,1,Pin_1*%
%TO.N,summer A input 1*%
X161690000Y-79530000D03*
D11*
%TO.P,SUMMER_A1,2,Pin_2*%
%TO.N,summer A input 2*%
X161690000Y-82070000D03*
%TO.P,SUMMER_A1,3,Pin_3*%
%TO.N,summer A input 3 (10x)*%
X161690000Y-84610000D03*
%TO.P,SUMMER_A1,4,Pin_4*%
%TO.N,Summer A ouput*%
X161690000Y-87150000D03*
%TD*%
D14*
%TO.P,C7,1*%
%TO.N,Net-(D2-K)*%
X133410000Y-66310000D03*
D12*
%TO.P,C7,2*%
%TO.N,GND*%
X133410000Y-68310000D03*
%TD*%
%TO.P,C4,1*%
%TO.N,Net-(U4C--)*%
X100838000Y-79816000D03*
%TO.P,C4,2*%
%TO.N,Net-(C4-Pad2)*%
X100838000Y-87316000D03*
%TD*%
%TO.P,R28,1*%
%TO.N,Net-(R27-Pad2)*%
X90710000Y-91500000D03*
D13*
%TO.P,R28,2*%
%TO.N,int C output*%
X80550000Y-91500000D03*
%TD*%
D10*
%TO.P,J1,1,Pin_1*%
%TO.N,-15V*%
X99490000Y-46560000D03*
D11*
%TO.P,J1,2,Pin_2*%
X102030000Y-46560000D03*
%TO.P,J1,3,Pin_3*%
X104570000Y-46560000D03*
%TO.P,J1,4,Pin_4*%
X107110000Y-46560000D03*
%TD*%
D12*
%TO.P,R40,1*%
%TO.N,Net-(U1D-+)*%
X145110000Y-98570000D03*
D13*
%TO.P,R40,2*%
%TO.N,summer B input 3 (10x)*%
X155270000Y-98570000D03*
%TD*%
D29*
%TO.P,RV5,1,1*%
%TO.N,Net-(C1-Pad1)*%
X135460000Y-42980000D03*
%TO.P,RV5,2,2*%
%TO.N,Net-(RV5-Pad2)*%
X132920000Y-40440000D03*
%TO.P,RV5,3,3*%
%TO.N,unconnected-(RV5-Pad3)*%
X130380000Y-42980000D03*
%TD*%
D12*
%TO.P,R34,1*%
%TO.N,Net-(C5-Pad2)*%
X101350000Y-91240000D03*
D13*
%TO.P,R34,2*%
%TO.N,Net-(R34-Pad2)*%
X111510000Y-91240000D03*
%TD*%
D12*
%TO.P,R11,1*%
%TO.N,int C input 3 (10x)*%
X80550000Y-88230000D03*
D13*
%TO.P,R11,2*%
%TO.N,Net-(R11-Pad2)*%
X90710000Y-88230000D03*
%TD*%
D12*
%TO.P,R38,1*%
%TO.N,Net-(U1D-+)*%
X145110000Y-95310000D03*
D13*
%TO.P,R38,2*%
%TO.N,summer B input 2*%
X155270000Y-95310000D03*
%TD*%
D12*
%TO.P,R16,1*%
%TO.N,int B input 2*%
X80550000Y-66920000D03*
D13*
%TO.P,R16,2*%
%TO.N,Net-(R15-Pad2)*%
X90710000Y-66920000D03*
%TD*%
D12*
%TO.P,R2,1*%
%TO.N,Net-(U1A--)*%
X145070000Y-105306666D03*
D13*
%TO.P,R2,2*%
%TO.N,Inverter A ouput*%
X155230000Y-105306666D03*
%TD*%
D12*
%TO.P,R12,1*%
%TO.N,initial voltage input A*%
X80550000Y-41890000D03*
D13*
%TO.P,R12,2*%
%TO.N,Net-(R12-Pad2)*%
X90710000Y-41890000D03*
%TD*%
D12*
%TO.P,R30,1*%
%TO.N,int D input 2*%
X80550000Y-103240000D03*
D13*
%TO.P,R30,2*%
%TO.N,Net-(R18-Pad2)*%
X90710000Y-103240000D03*
%TD*%
D10*
%TO.P,U2,1,VIN+*%
%TO.N,+5V*%
X162690000Y-57460000D03*
D30*
%TO.P,U2,2,VIN-*%
%TO.N,GND*%
X162690000Y-60000000D03*
%TO.P,U2,4,VOUT-*%
%TO.N,-15V*%
X162690000Y-67620000D03*
%TO.P,U2,5,0V*%
%TO.N,GND*%
X162690000Y-70160000D03*
%TO.P,U2,6,VOUT+*%
%TO.N,+15V*%
X162690000Y-72700000D03*
%TD*%
D19*
%TO.P,U4,1*%
%TO.N,Net-(C2-Pad2)*%
X122490000Y-66610000D03*
D20*
%TO.P,U4,2,-*%
%TO.N,Net-(U4A--)*%
X119950000Y-66610000D03*
%TO.P,U4,3,+*%
%TO.N,GND*%
X117410000Y-66610000D03*
%TO.P,U4,4,V+*%
%TO.N,+15V*%
X114870000Y-66610000D03*
%TO.P,U4,5,+*%
%TO.N,GND*%
X112330000Y-66610000D03*
%TO.P,U4,6,-*%
%TO.N,Net-(U4B--)*%
X109790000Y-66610000D03*
%TO.P,U4,7*%
%TO.N,Net-(R20-Pad2)*%
X107250000Y-66610000D03*
%TO.P,U4,8*%
%TO.N,Net-(R27-Pad2)*%
X107250000Y-74230000D03*
%TO.P,U4,9,-*%
%TO.N,Net-(U4C--)*%
X109790000Y-74230000D03*
%TO.P,U4,10,+*%
%TO.N,GND*%
X112330000Y-74230000D03*
%TO.P,U4,11,V-*%
%TO.N,-15V*%
X114870000Y-74230000D03*
%TO.P,U4,12,+*%
%TO.N,GND*%
X117410000Y-74230000D03*
%TO.P,U4,13,-*%
%TO.N,Net-(U4D--)*%
X119950000Y-74230000D03*
%TO.P,U4,14*%
%TO.N,Net-(R34-Pad2)*%
X122490000Y-74230000D03*
%TD*%
D10*
%TO.P,INT_C1,1,Pin_1*%
%TO.N,initial voltage input C*%
X73090000Y-78755000D03*
D11*
%TO.P,INT_C1,2,Pin_2*%
%TO.N,int C input 1*%
X73090000Y-81295000D03*
%TO.P,INT_C1,3,Pin_3*%
%TO.N,int C input 2*%
X73090000Y-83835000D03*
%TO.P,INT_C1,4,Pin_4*%
%TO.N,int C input 3 (10x)*%
X73090000Y-86375000D03*
%TO.P,INT_C1,5,Pin_5*%
%TO.N,int C output*%
X73090000Y-88915000D03*
%TO.P,INT_C1,6,Pin_6*%
X73090000Y-91455000D03*
%TD*%
D12*
%TO.P,C3,1*%
%TO.N,Net-(U4B--)*%
X128778000Y-62170000D03*
%TO.P,C3,2*%
%TO.N,Net-(C3-Pad2)*%
X128778000Y-54670000D03*
%TD*%
D10*
%TO.P,INT_A1,1,Pin_1*%
%TO.N,initial voltage input A*%
X73090000Y-42400000D03*
D11*
%TO.P,INT_A1,2,Pin_2*%
%TO.N,int A input 1*%
X73090000Y-44940000D03*
%TO.P,INT_A1,3,Pin_3*%
%TO.N,int A input 2*%
X73090000Y-47480000D03*
%TO.P,INT_A1,4,Pin_4*%
%TO.N,int A input 3 (10x)*%
X73090000Y-50020000D03*
%TO.P,INT_A1,5,Pin_5*%
%TO.N,int A output*%
X73090000Y-52560000D03*
%TO.P,INT_A1,6,Pin_6*%
X73090000Y-55100000D03*
%TD*%
D12*
%TO.P,R1,1*%
%TO.N,Net-(U1A--)*%
X145070000Y-102110000D03*
D13*
%TO.P,R1,2*%
%TO.N,inverter A input*%
X155230000Y-102110000D03*
%TD*%
D10*
%TO.P,SUMMER_B1,1,Pin_1*%
%TO.N,summer B input 1*%
X161690000Y-91616666D03*
D11*
%TO.P,SUMMER_B1,2,Pin_2*%
%TO.N,summer B input 2*%
X161690000Y-94156666D03*
%TO.P,SUMMER_B1,3,Pin_3*%
%TO.N,summer B input 3 (10x)*%
X161690000Y-96696666D03*
%TO.P,SUMMER_B1,4,Pin_4*%
%TO.N,Summer B ouput*%
X161690000Y-99236666D03*
%TD*%
D12*
%TO.P,R23,1*%
%TO.N,int C input 2*%
X80550000Y-84980000D03*
D13*
%TO.P,R23,2*%
%TO.N,Net-(R11-Pad2)*%
X90710000Y-84980000D03*
%TD*%
D12*
%TO.P,R42,1*%
%TO.N,int B input 3 (10x)*%
X80550000Y-70180000D03*
D13*
%TO.P,R42,2*%
%TO.N,Net-(R15-Pad2)*%
X90710000Y-70180000D03*
%TD*%
D10*
%TO.P,INT_B1,1,Pin_1*%
%TO.N,initial voltage input B*%
X73090000Y-60577500D03*
D11*
%TO.P,INT_B1,2,Pin_2*%
%TO.N,int B input 1*%
X73090000Y-63117500D03*
%TO.P,INT_B1,3,Pin_3*%
%TO.N,int B input 2*%
X73090000Y-65657500D03*
%TO.P,INT_B1,4,Pin_4*%
%TO.N,int B input 3 (10x)*%
X73090000Y-68197500D03*
%TO.P,INT_B1,5,Pin_5*%
%TO.N,int B output*%
X73090000Y-70737500D03*
%TO.P,INT_B1,6,Pin_6*%
X73090000Y-73277500D03*
%TD*%
D31*
%TO.N,Net-(U4B--)*%
X121412000Y-64008000D03*
%TO.N,Net-(U4D--)*%
X117094000Y-63770000D03*
%TO.N,Net-(C5-Pad2)*%
X96266000Y-82296000D03*
X102362000Y-74676000D03*
X102362000Y-67056000D03*
%TO.N,Net-(R12-Pad2)*%
X103632000Y-83566000D03*
%TO.N,Net-(R15-Pad2)*%
X103124000Y-64770000D03*
%TO.N,Net-(R34-Pad2)*%
X133858000Y-88138000D03*
X129032000Y-76200000D03*
%TO.N,+15V*%
X158750000Y-52352182D03*
%TO.N,-15V*%
X160528000Y-52578000D03*
%TD*%
D32*
%TO.N,Net-(U4B--)*%
X127979370Y-64100000D02*
X128778000Y-63301370D01*
X128778000Y-63301370D02*
X128778000Y-62170000D01*
X121412000Y-64008000D02*
X121504000Y-64100000D01*
X121504000Y-64100000D02*
X127979370Y-64100000D01*
%TO.N,Net-(U4C--)*%
X106510000Y-77990000D02*
X102664000Y-77990000D01*
X111040000Y-87260000D02*
X107188000Y-83408000D01*
X102664000Y-77990000D02*
X100750000Y-79904000D01*
X107188000Y-83408000D02*
X107188000Y-78668000D01*
X107188000Y-78668000D02*
X106510000Y-77990000D01*
%TO.N,Net-(C4-Pad2)*%
X93460000Y-78550000D02*
X90710000Y-78550000D01*
X100838000Y-87316000D02*
X100838000Y-85928000D01*
X100838000Y-85928000D02*
X93460000Y-78550000D01*
%TO.N,Net-(U4D--)*%
X118618000Y-65294000D02*
X118618000Y-72898000D01*
X117094000Y-63770000D02*
X118618000Y-65294000D01*
X118618000Y-72898000D02*
X119950000Y-74230000D01*
%TO.N,Net-(C5-Pad2)*%
X101350000Y-91240000D02*
X96266000Y-86156000D01*
X96266000Y-86156000D02*
X96266000Y-82296000D01*
X102362000Y-74676000D02*
X102362000Y-67056000D01*
%TO.N,Net-(U1C-+)*%
X126920000Y-101220000D02*
X119654314Y-101220000D01*
X119654314Y-101220000D02*
X119004314Y-101870000D01*
X114490000Y-101870000D02*
X112360000Y-104000000D01*
X119004314Y-101870000D02*
X114490000Y-101870000D01*
X144920000Y-83220000D02*
X126920000Y-101220000D01*
%TO.N,Net-(R12-Pad2)*%
X100076000Y-83566000D02*
X103632000Y-83566000D01*
X88646000Y-73660000D02*
X90170000Y-75184000D01*
X89916000Y-49530000D02*
X88646000Y-50800000D01*
X91948000Y-43128000D02*
X91948000Y-48981817D01*
X91694000Y-75184000D02*
X100076000Y-83566000D01*
X91399817Y-49530000D02*
X89916000Y-49530000D01*
X88646000Y-50800000D02*
X88646000Y-73660000D01*
X91948000Y-48981817D02*
X91399817Y-49530000D01*
X90170000Y-75184000D02*
X91694000Y-75184000D01*
X90710000Y-41890000D02*
X91948000Y-43128000D01*
%TO.N,Net-(R15-Pad2)*%
X111040000Y-54430000D02*
X109728000Y-55742000D01*
X107950000Y-64770000D02*
X103124000Y-64770000D01*
X109728000Y-62992000D02*
X107950000Y-64770000D01*
X109728000Y-55742000D02*
X109728000Y-62992000D01*
%TO.N,Net-(R27-Pad2)*%
X121134314Y-95165686D02*
X121134314Y-97181321D01*
X97400000Y-98190000D02*
X90710000Y-91500000D01*
X125060000Y-91240000D02*
X121134314Y-95165686D01*
X121134314Y-97181321D02*
X120125635Y-98190000D01*
X120125635Y-98190000D02*
X97400000Y-98190000D01*
X127290000Y-91240000D02*
X125060000Y-91240000D01*
%TO.N,Net-(R34-Pad2)*%
X129032000Y-76200000D02*
X133858000Y-81026000D01*
X133858000Y-81026000D02*
X133858000Y-88138000D01*
%TO.N,Net-(U1D-+)*%
X137328000Y-101940000D02*
X143958000Y-95310000D01*
X119500000Y-101940000D02*
X137328000Y-101940000D01*
X117440000Y-104000000D02*
X119500000Y-101940000D01*
X143958000Y-95310000D02*
X145110000Y-95310000D01*
D33*
%TO.N,TRIG out*%
X111980000Y-49090000D02*
X108590000Y-52480000D01*
X150810000Y-52730000D02*
X150810000Y-46290000D01*
X122428000Y-63246000D02*
X122807000Y-63625000D01*
X134335000Y-52965000D02*
X134335000Y-48291000D01*
X113120000Y-47900000D02*
X112290000Y-47070000D01*
X123740000Y-54430000D02*
X122428000Y-55742000D01*
X112290000Y-41520000D02*
X112700000Y-41110000D01*
X107230000Y-60780000D02*
X105960000Y-62050000D01*
X143636000Y-39116000D02*
X114694000Y-39116000D01*
X114694000Y-39116000D02*
X112700000Y-41110000D01*
X112290000Y-47070000D02*
X112290000Y-41520000D01*
X134214000Y-53086000D02*
X134335000Y-52965000D01*
X147300000Y-52800000D02*
X150740000Y-52800000D01*
X114810000Y-47900000D02*
X113120000Y-47900000D01*
X107880000Y-52480000D02*
X107230000Y-53130000D01*
X133566751Y-55465000D02*
X133641751Y-55390000D01*
X126957182Y-63625000D02*
X126957182Y-60531117D01*
X85500000Y-108160000D02*
X109690000Y-108160000D01*
X133641751Y-55390000D02*
X144710000Y-55390000D01*
X134304000Y-48260000D02*
X125798000Y-48260000D01*
X85500000Y-43862182D02*
X85500000Y-108160000D01*
X150810000Y-46290000D02*
X148460000Y-43940000D01*
X112700000Y-41110000D02*
X110960000Y-39370000D01*
X108590000Y-52480000D02*
X107880000Y-52480000D01*
X123740000Y-54430000D02*
X125084000Y-53086000D01*
X150810000Y-70424000D02*
X150810000Y-52730000D01*
X89992182Y-39370000D02*
X85500000Y-43862182D01*
X107230000Y-53130000D02*
X107230000Y-60780000D01*
X132023299Y-55465000D02*
X133566751Y-55465000D01*
X125798000Y-48260000D02*
X124968000Y-49090000D01*
X126957182Y-60531117D02*
X132023299Y-55465000D01*
X125084000Y-53086000D02*
X134214000Y-53086000D01*
X144710000Y-55390000D02*
X147300000Y-52800000D01*
X123740000Y-79640000D02*
X129974000Y-73406000D01*
X116250000Y-46460000D02*
X114810000Y-47900000D01*
X134335000Y-48291000D02*
X134304000Y-48260000D01*
X124968000Y-49090000D02*
X111980000Y-49090000D01*
X150740000Y-52800000D02*
X150810000Y-52730000D01*
X148460000Y-43940000D02*
X143636000Y-39116000D01*
X122428000Y-55742000D02*
X122428000Y-63246000D01*
X122807000Y-63625000D02*
X126957182Y-63625000D01*
X110960000Y-39370000D02*
X89992182Y-39370000D01*
X129974000Y-73406000D02*
X147828000Y-73406000D01*
X147828000Y-73406000D02*
X150810000Y-70424000D01*
%TO.N,GND*%
X132292000Y-51562000D02*
X132840000Y-52110000D01*
X117440000Y-96380000D02*
X123900000Y-89920000D01*
X114898000Y-51562000D02*
X123490299Y-51562000D01*
D34*
X161103000Y-58413000D02*
X162690000Y-60000000D01*
X161544000Y-43180000D02*
X162600000Y-44236000D01*
D33*
X123603299Y-51675000D02*
X124576701Y-51675000D01*
D34*
X162600000Y-44236000D02*
X162600000Y-52792000D01*
D33*
X113580000Y-52880000D02*
X114898000Y-51562000D01*
X124689701Y-51562000D02*
X132292000Y-51562000D01*
X164070000Y-71540000D02*
X162690000Y-70160000D01*
X135247818Y-89920000D02*
X142370000Y-82797818D01*
X112330000Y-55680000D02*
X112330000Y-66610000D01*
X162942182Y-74340000D02*
X164070000Y-73212182D01*
X143800000Y-122440000D02*
X143800000Y-116310000D01*
X143800000Y-122440000D02*
X151830000Y-130470000D01*
D34*
X161103000Y-54289000D02*
X161103000Y-58413000D01*
D33*
X113580000Y-54430000D02*
X113580000Y-52880000D01*
D34*
X162600000Y-52792000D02*
X161103000Y-54289000D01*
D33*
X124576701Y-51675000D02*
X124689701Y-51562000D01*
X142370000Y-78864000D02*
X143674000Y-77560000D01*
X123900000Y-89920000D02*
X135247818Y-89920000D01*
X143674000Y-77560000D02*
X158870000Y-77560000D01*
X164070000Y-73212182D02*
X164070000Y-71540000D01*
X123490299Y-51562000D02*
X123603299Y-51675000D01*
X113580000Y-54430000D02*
X112330000Y-55680000D01*
X158870000Y-77560000D02*
X162090000Y-74340000D01*
X162090000Y-74340000D02*
X162942182Y-74340000D01*
X142370000Y-82797818D02*
X142370000Y-78864000D01*
X143800000Y-116310000D02*
X145050000Y-115060000D01*
%TO.N,+15V*%
X143256000Y-76708000D02*
X157988000Y-76708000D01*
X157988000Y-76708000D02*
X161996000Y-72700000D01*
X116235000Y-67975000D02*
X116235000Y-76375000D01*
X114900000Y-89780000D02*
X114880000Y-89760000D01*
X161996000Y-72700000D02*
X162690000Y-72700000D01*
X125730000Y-89154000D02*
X134801000Y-89154000D01*
X120580000Y-85490000D02*
X124606000Y-85490000D01*
X159766000Y-69776000D02*
X162690000Y-72700000D01*
D32*
X114870000Y-66610000D02*
X116310000Y-68050000D01*
D33*
X114900000Y-96380000D02*
X114900000Y-89780000D01*
X116120000Y-86220000D02*
X116120000Y-87260000D01*
X119900000Y-88490000D02*
X119900000Y-86170000D01*
X114880000Y-89760000D02*
X118630000Y-89760000D01*
X112270000Y-85910000D02*
X112270000Y-88380000D01*
X158750000Y-52352182D02*
X158778182Y-52352182D01*
X134801000Y-89154000D02*
X141732000Y-82223000D01*
X159766000Y-53340000D02*
X159766000Y-69776000D01*
X158778182Y-52352182D02*
X159766000Y-53340000D01*
X112270000Y-88380000D02*
X113650000Y-89760000D01*
X141732000Y-82223000D02*
X141732000Y-78232000D01*
X125476000Y-86360000D02*
X125476000Y-88900000D01*
X141732000Y-78232000D02*
X143256000Y-76708000D01*
X117420000Y-77560000D02*
X117420000Y-84920000D01*
X118630000Y-89760000D02*
X119900000Y-88490000D01*
X117420000Y-84920000D02*
X116120000Y-86220000D01*
X116120000Y-87260000D02*
X114040000Y-85180000D01*
X114040000Y-85180000D02*
X113000000Y-85180000D01*
X124606000Y-85490000D02*
X125476000Y-86360000D01*
X116235000Y-76375000D02*
X117420000Y-77560000D01*
X114870000Y-66610000D02*
X116235000Y-67975000D01*
X116120000Y-65360000D02*
X114870000Y-66610000D01*
X125476000Y-88900000D02*
X125730000Y-89154000D01*
X113650000Y-89760000D02*
X114880000Y-89760000D01*
X119900000Y-86170000D02*
X120580000Y-85490000D01*
X113000000Y-85180000D02*
X112270000Y-85910000D01*
X116120000Y-62050000D02*
X116120000Y-65360000D01*
D32*
%TO.N,Summer A ouput*%
X158360000Y-87150000D02*
X161690000Y-87150000D01*
X107280000Y-105160000D02*
X108520000Y-106400000D01*
X139110000Y-106400000D02*
X158360000Y-87150000D01*
X108520000Y-106400000D02*
X139110000Y-106400000D01*
X107280000Y-104000000D02*
X107280000Y-105160000D01*
D33*
%TO.N,-15V*%
X113570000Y-72930000D02*
X114870000Y-74230000D01*
X114900000Y-104000000D02*
X112975000Y-105925000D01*
X114840000Y-64218248D02*
X113570000Y-65488248D01*
X159560000Y-78500000D02*
X164650000Y-73410000D01*
X164650000Y-67730000D02*
X164540000Y-67620000D01*
X164650000Y-73410000D02*
X164650000Y-67730000D01*
X160528000Y-67056000D02*
X161092000Y-67620000D01*
X114840000Y-60630000D02*
X114840000Y-64218248D01*
X111070000Y-105560000D02*
X111070000Y-102730000D01*
X160528000Y-52578000D02*
X160528000Y-67056000D01*
X144030000Y-78500000D02*
X159560000Y-78500000D01*
X115080000Y-98720000D02*
X127848000Y-98720000D01*
X111070000Y-102730000D02*
X115080000Y-98720000D01*
X116120000Y-54430000D02*
X116120000Y-59350000D01*
X111435000Y-105925000D02*
X111070000Y-105560000D01*
X113570000Y-65488248D02*
X113570000Y-72930000D01*
X164540000Y-67620000D02*
X162690000Y-67620000D01*
X143256000Y-79274000D02*
X144030000Y-78500000D01*
X116120000Y-59350000D02*
X114840000Y-60630000D01*
X161092000Y-67620000D02*
X162690000Y-67620000D01*
X127848000Y-98720000D02*
X143256000Y-83312000D01*
X143256000Y-83312000D02*
X143256000Y-79274000D01*
X112975000Y-105925000D02*
X111435000Y-105925000D01*
D32*
%TO.N,Summer B ouput*%
X162840000Y-86673654D02*
X162166346Y-86000000D01*
X136985686Y-104000000D02*
X122520000Y-104000000D01*
X143515686Y-97470000D02*
X136985686Y-104000000D01*
X161690000Y-99236666D02*
X162840000Y-98086666D01*
X162166346Y-86000000D02*
X158268967Y-86000000D01*
X146798967Y-97470000D02*
X143515686Y-97470000D01*
X162840000Y-98086666D02*
X162840000Y-86673654D01*
X158268967Y-86000000D02*
X146798967Y-97470000D01*
D33*
%TO.N,+5V*%
X126870000Y-71911702D02*
X126870000Y-64770000D01*
X122945635Y-75805000D02*
X122976701Y-75805000D01*
X139380000Y-58180000D02*
X139350000Y-58210000D01*
X117380000Y-53260000D02*
X116850000Y-52730000D01*
X139350000Y-60450000D02*
X141030000Y-62130000D01*
X129540000Y-64770000D02*
X136130000Y-58180000D01*
X119835000Y-83465000D02*
X119835000Y-78915635D01*
X113580000Y-87260000D02*
X113580000Y-87630000D01*
X144380000Y-58180000D02*
X139380000Y-58180000D01*
X115160000Y-89210000D02*
X116540000Y-89210000D01*
X166090000Y-60860000D02*
X162690000Y-57460000D01*
X122976701Y-75805000D02*
X126870000Y-71911702D01*
X139350000Y-58210000D02*
X139350000Y-60450000D01*
X126870000Y-64770000D02*
X129540000Y-64770000D01*
X114840000Y-53310000D02*
X114840000Y-59070000D01*
X119084365Y-64770000D02*
X117380000Y-63065635D01*
X166090000Y-126990000D02*
X166090000Y-60860000D01*
X141030000Y-70284000D02*
X141986000Y-71240000D01*
X117380000Y-63065635D02*
X117380000Y-53260000D01*
X116850000Y-52730000D02*
X115420000Y-52730000D01*
X113580000Y-87630000D02*
X115160000Y-89210000D01*
X113580000Y-60330000D02*
X113580000Y-62050000D01*
X126870000Y-64770000D02*
X119084365Y-64770000D01*
X136130000Y-58180000D02*
X139380000Y-58180000D01*
X117370000Y-88380000D02*
X117370000Y-85930000D01*
X116540000Y-89210000D02*
X117370000Y-88380000D01*
X119835000Y-78915635D02*
X122945635Y-75805000D01*
X117370000Y-85930000D02*
X119835000Y-83465000D01*
X141030000Y-62130000D02*
X141030000Y-70284000D01*
X115420000Y-52730000D02*
X114840000Y-53310000D01*
X165090000Y-127990000D02*
X166090000Y-126990000D01*
X148460000Y-54100000D02*
X144380000Y-58180000D01*
X158590000Y-127990000D02*
X165090000Y-127990000D01*
X114840000Y-59070000D02*
X113580000Y-60330000D01*
D32*
%TO.N,operate switch input*%
X135110000Y-48242000D02*
X134353000Y-47485000D01*
X105960000Y-79640000D02*
X103260000Y-82340000D01*
X92220000Y-49320000D02*
X100810000Y-49320000D01*
X89220000Y-55770000D02*
X89220000Y-50870000D01*
X135560000Y-52810000D02*
X144670000Y-52810000D01*
X126482182Y-61877818D02*
X126310000Y-62050000D01*
X133370000Y-54990000D02*
X131826547Y-54990000D01*
X101720000Y-48410000D02*
X100830000Y-49300000D01*
X91490000Y-50050000D02*
X92220000Y-49320000D01*
X100830000Y-49300000D02*
X105960000Y-54430000D01*
X135110000Y-52360000D02*
X135110000Y-48242000D01*
X89220000Y-50870000D02*
X90040000Y-50050000D01*
X126482182Y-60334365D02*
X126482182Y-61877818D01*
X135120000Y-52370000D02*
X135560000Y-52810000D01*
X100810000Y-49320000D02*
X100830000Y-49300000D01*
X118976000Y-48410000D02*
X101720000Y-48410000D01*
X119901000Y-47485000D02*
X118976000Y-48410000D01*
X92590000Y-59140000D02*
X89220000Y-55770000D01*
X131826547Y-54990000D02*
X126482182Y-60334365D01*
X126310000Y-62050000D02*
X123740000Y-62050000D01*
X90040000Y-50050000D02*
X91490000Y-50050000D01*
X103260000Y-82340000D02*
X100220000Y-82340000D01*
X135120000Y-53240000D02*
X133370000Y-54990000D01*
X134353000Y-47485000D02*
X119901000Y-47485000D01*
X105960000Y-87260000D02*
X105960000Y-79640000D01*
X144670000Y-52810000D02*
X148460000Y-49020000D01*
X135120000Y-52370000D02*
X135120000Y-53240000D01*
X100220000Y-82340000D02*
X92590000Y-74710000D01*
X135120000Y-52370000D02*
X135110000Y-52360000D01*
X92590000Y-74710000D02*
X92590000Y-59140000D01*
%TO.N,Net-(R41-Pad2)*%
X90710000Y-51570000D02*
X92710000Y-53570000D01*
X92710000Y-56134000D02*
X108458000Y-71882000D01*
X108458000Y-77058000D02*
X111040000Y-79640000D01*
X92710000Y-53570000D02*
X92710000Y-56134000D01*
X108458000Y-71882000D02*
X108458000Y-77058000D01*
D33*
%TO.N,Net-(SW2-C)*%
X119850000Y-47010000D02*
X138830000Y-47010000D01*
X138830000Y-47010000D02*
X140840000Y-49020000D01*
X118790000Y-46460000D02*
X119300000Y-46460000D01*
X119300000Y-46460000D02*
X119850000Y-47010000D01*
%TO.N,Net-(SW2-A)*%
X150170000Y-48390000D02*
X150170000Y-49850000D01*
X150170000Y-49850000D02*
X148460000Y-51560000D01*
X115140000Y-45030000D02*
X139868299Y-45030000D01*
X146230000Y-47730000D02*
X149510000Y-47730000D01*
X143530000Y-45030000D02*
X146230000Y-47730000D01*
X149510000Y-47730000D02*
X150170000Y-48390000D01*
X113710000Y-46460000D02*
X115140000Y-45030000D01*
X139868299Y-45030000D02*
X139953299Y-45115000D01*
X141726701Y-45115000D02*
X141811701Y-45030000D01*
X141811701Y-45030000D02*
X143530000Y-45030000D01*
X139953299Y-45115000D02*
X141726701Y-45115000D01*
D34*
%TO.N,Net-(D2-A)*%
X156464000Y-67716000D02*
X154410000Y-69770000D01*
X156464000Y-43180000D02*
X156464000Y-67716000D01*
D33*
%TO.N,Net-(R10-Pad2)*%
X165090000Y-132490000D02*
X158590000Y-132490000D01*
X154960000Y-115060000D02*
X155210000Y-115060000D01*
X158590000Y-132490000D02*
X158590000Y-131010000D01*
X158590000Y-131010000D02*
X148800000Y-121220000D01*
X148800000Y-121220000D02*
X154960000Y-115060000D01*
%TD*%
M02*
